/* XPM */
static char *_e1b3bfec8f640ab940f2b50a6101d9dI3PjLQF1pE0rc9HD[] = {
/* columns rows colors chars-per-pixel */
"60 60 8 1 ",
"  c None",
". c black",
"X c gray10",
"o c gray15",
"O c gray33",
"+ c #7D7C7D",
"@ c #C9001E",
"# c white",
/* pixels */
"                                                            ",
"                                                            ",
"                                                            ",
"                                                            ",
"                                                            ",
"                                                            ",
"                                                            ",
"                                                            ",
"                       ooo                                  ",
"                      ooOoooooo                             ",
"                      oOOOOOOOoooo                          ",
"                    ooOOOOO+OOOOOo                          ",
"                    oOOOOO+oooooOo                          ",
"                   ooOOOO++o###ooo                          ",
"                   ooOOOO+Oo#.##oo                          ",
"                   oOOOOOOoo...##o                          ",
"                   oOOO+Ooo#.@.##                           ",
"                   oOOO+Oo# @####                           ",
"                   oOOO+Oo# @                               ",
"                   oOOO++o# @                               ",
"                  oooooO+oo#@## #                           ",
"                  oooOOOOOoo@#oooo                          ",
"                 ooOOoooOOOoooooo                           ",
"                 ooOooOOOOOOOOOoo                           ",
"                  oooOOOOOOOOOOoo                           ",
"                    ooooOOOOOOooo                           ",
"                     oooOoooOOooo                           ",
"                      oooooOOOooo                           ",
"                     ooOOOOXOOoooo                          ",
"                    ooOOOOOXXXXOoo                          ",
"                  ..oOOOOOOoXXOOOo                          ",
"                  ..OOOOOOOOXXOOOoo                         ",
"                 ..OOOOOOOOOXOOOOoo                         ",
"                 .OOOOOOOOOOXOOOOOo                         ",
"                ooOOOOOOOOOOXOOOO+o                         ",
"               ooOOOOOOOOOO.X.OOO+o                         ",
"               ooOOOOOOOOOOOXOOOO+o                         ",
"               oOOOOOOOOOOOOXOOOO+o                         ",
"               oOOOOOOoOOOO.X.OOOOo                         ",
"               oOOOOOOoOOOOOXOOOOOoo                        ",
"               oOOOOOooOOOO...OOOOOo                        ",
"               oOOOOOoOOOOOOXOOOOOOo                        ",
"               oOOOOOoOOOOOXXOOOOOOo                        ",
"               oOOOOOoOOOOOoOOOOOOOo                        ",
"              ooOOOoooOOOOoXOOOOOOOo                        ",
"              oOOOOooOOOOOXXOOOOOOOo                        ",
"             ooOOOOooOOOOXXXOOOOOOOo                        ",
"             oOOOOOoOOOOOXXXOOOOOOOo                        ",
"             oOOOOooOOOOXXXXOOOOOOo                         ",
"             oOOOOoOOOOOXXXXOOOOOoo                         ",
"             oooOOoOOOOXXXXXOOOOOo                          ",
"               ooooOOoXXXXXXOOOOoo                          ",
"                 ooooXXoooooooooo                           ",
"                  ooooooooooooo                             ",
"                   oo       ooo                             ",
"                   oo       oo                              ",
"                   oo       oo                              ",
"                   oo       oo                              ",
"                   oooo     oooo                            ",
"                                                            "
};
