/* XPM */
static char *_505b8b748874e03a98a0c85fc74b877pvUc4rUL6f6gMrlu[] = {
/* columns rows colors chars-per-pixel */
"60 60 4 1 ",
"  c gray13",
". c gray22",
"X c gray31",
"o c gray46",
/* pixels */
"             .XXXXXXX...    ..oo..             XX.    ...XXX",
"             .XXXXXXX...    ..oo..                    ......",
"             .XXXXXXX...    ..oo.                        ...",
"             .XXXXXXX...    ...                             ",
".....     ....XXXXXX....              ..XXXX                ",
".....     ....XXXXXX...               ..XXXXXXXXX.          ",
".....     ........                   XXXXXXXXXXXX....       ",
"                                   .XXXXXXXXXXXXXXXXXXX     ",
"                                 ...XXXXXXXoooooooooXXX..   ",
"                           .     ...........ooooXXXXXXX..   ",
"                          ...    ...........XXXXXXXXXXX..   ",
"...              ....     ........XX..    ..XXXXXXXXXXXX.   ",
"...        ...........    ........XX..    ..XXXXXXXXXXXX....",
"...    ...............    ........XX      ..XXXX........XXoo",
"...    ...........ooo.    ....XXXXXX      ..XXXX.........Xoo",
"  ....X...........ooo.    ....XXX...      ..XXXX..........XX",
"  ...............oooo.    ....XXX...     ...XXXX..........XX",
"  ..............ooooo.    ....XXX...         ..............X",
"  .............oooooo.    ....XXX...            ...........X",
"  .............oooooo.    ....XXX...                   ....X",
"  ..........XXooooooo.    ...XXXX....                    ..X",
" ..X........XXXXXXooo.    ...XXXX.........                .X",
"...o........XXXXXXooo.    .....................           .X",
"...o................      ........ooooooo........X..      ..",
"...oXXXXXXX.....              ....X..............X....    ..",
"...oXXXXXXX.....              ....X........XXXXXXXXX..    ..",
"...............                  .X........XXXXXXXXX..    ..",
"...............     ..           .X...................    ..",
"ooX.                ..      .    .X...............        ..",
"ooX.                .       .     ................        ..",
"ooX.               ..       .     ................        ..",
"ooX.            ..X..             .............           ..",
"ooX..    ..    ...XX.             ......X......     .......X",
"ooX..    ..    ...XX.            ...    X......     .......o",
"ooX..    ..    ...XX.            ...    X......     .......o",
"ooXX.    ..    ...XX.           ....    ..XXXo.     ..oooooo",
"ooXX.    ..    ...XX.           ....    ...XXo..    ..oooooo",
"oooX.    ..    XXooo.           oo..     ..XXX..    ........",
"oooX.    ..    XXooo.       ....oo..     ...XX..        .   ",
"ooXX.    ..    XXoo         ....oo..     ...XX......        ",
"XXXX.    ..    ....    .    ....oo...    ...XX......        ",
".....    ..........    .    ....oo...    ...XX......        ",
"         ....          .    .........     ..XX......        ",
"         ....         ..    .........     ..XXooX...        ",
"         ...                 ........                       ",
"        ....                         .                      ",
"..........       ...X                .                      ",
"..........       ...X                                       ",
"  ........            ....                                  ",
"   ...X...            .    ...                              ",
"    .........         .                                .....",
"       ......         .                 .....          .....",
"                ..    .             .........         ......",
"                ..    .           ...XXXXXXXX         ......",
".               ..    ..          .XXXXXXoooo         .....o",
"...             ........          .oooooooooo        ......o",
".....       ...ooooooooX          .oooooooooo.       ......o",
".....     ....XooooooooX.        ..oooooooooo.       ......o",
"ooooo     ....XooooooooX.        ..oooooooooo.       ......o",
"ooooo     ....XooooooooX.        .ooooooooooo..     .......o"
};
