/* XPM */
static char *_fdcede185ca428cdbf322e5d6587c769tbOh0zRYqjlJNuB[] = {
/* columns rows colors chars-per-pixel */
"60 60 18 1 ",
"  c None",
". c black",
"X c #740707",
"o c #850707",
"O c #821A1A",
"+ c #941515",
"@ c #BF0F0F",
"# c #A82525",
"$ c #C20E0E",
"% c #FA0505",
"& c #CF2D2D",
"* c #D42424",
"= c #F23535",
"- c gray59",
"; c #D1C7D1",
": c gray86",
"> c #F5DADE",
", c white",
/* pixels */
"                                                            ",
"                                                            ",
"                                                            ",
"                                                            ",
"                                                            ",
"                                                            ",
"                                                            ",
"                                                            ",
"                                                            ",
"                                                            ",
"                                                            ",
"                                                            ",
"                                                            ",
"                                                            ",
"                                                            ",
"                                                            ",
"                                                            ",
"                                                            ",
"                                                            ",
"                                                            ",
"                                                            ",
"                                                            ",
"                                                            ",
"                                                            ",
"                                                            ",
"                                                            ",
"                                                            ",
"                                                            ",
"                                                            ",
"                                                            ",
"                                                            ",
"                                                            ",
"                                                            ",
"                                                            ",
"                                                            ",
"                                                            ",
"                                                            ",
"                                                            ",
"                                                            ",
"                                                            ",
"                          -------                           ",
"                         --;;##++-                          ",
"                       --;;,:,,oo---                        ",
"                       -,,,&::o..++--                       ",
"                      --,,,&#+o..++=-                       ",
"                      -,,,,&#+ooo$$&-                       ",
"                      -,,,,*%+++++$&-                       ",
"                      -,,,%%*$$$$$&&-                       ",
"                      -,,%% &=$$$&%;-                       ",
"                      -,,%%,&&&&&%%;-                       ",
"                      --,%%,, ,;;;%-                        ",
"                       >,%%,,,,;;;%-                        ",
"                     XO>>%%,,;;;;;%                         ",
"                    @XOOO%%,;;;;;;>                         ",
"              @@@@ @@XXOOOOO>>>>>X%                         ",
"              @XX  @@XXXXOOOOOOOOOXX@                       ",
"                  @@@@XXXXXXXXXXXXX@@                       ",
"                     @@@@@@@@@@@@@@@ XX                     ",
"                  @@@          @@   XX                      ",
"                              @@  @@@                       "
};
