/* XPM */
static char *b47cf142f0b642f498a27e366329380f3b4iuF3LEOMFJXOZ[] = {
/* columns rows colors chars-per-pixel */
"60 60 5 1 ",
"  c None",
". c black",
"X c #212021",
"o c gray24",
"O c #6B6A6B",
/* pixels */
"                                                            ",
"                                                            ",
"                                                            ",
"                                                            ",
"                                                            ",
"                                                            ",
"                                                            ",
"                              XXXXXXXXXXXXXXXXXXX           ",
"               XXXXXXXXXXXXOOOOOOOOOOOOOOOOOOOOXX           ",
"               XXXXXXXXXXXXOOOOOOOOOOOOOOOOOOOOXX           ",
"               XXXXXXOOOOOOOOOOOOOOOOOOOOOOOOOOXX           ",
"               XXXOOOOOOOOOOOOOOOOOOOOOOOOOOOOOXX           ",
"               XXXOOOOOOOOOOOOXXXXXXXXXOOOOOOOOXX           ",
"               XXOOOOOOOOOXXXXXXXXXXXXXXOOOOOOOXX           ",
"               XXOOOOOOOXXXXXXXXXXXXXXXXXXXOOOOXX           ",
"               XXOOOOOOOXXXXXXXXXXXXXXXXXXXXOOXX            ",
"              XOOOOOOOOXXXXXXXXXXXXXooXXXOOXOOXX            ",
"              XOOOOOOOXXXXXXXXXX....ooooXOOOXXX             ",
"              XOOOOOOOXXXXXXXXX.....oooooOOOXXX             ",
"              XOOOOOOOXXXXXXXX......XXoooXOOOXX             ",
"              XOOOOOOOXXXXXXXX......XXXoooXOOX              ",
"              XOOXOOOOXXXXXXX.......XXXooooOOO              ",
"              XOOXOOOOOOXXXX.........XXooooXOO              ",
"              XOOOOOOOOOXXXX..........XoooooOO              ",
"              XOOOOOOOOOXXX............oooooOOO             ",
"              XOOOOOOOOOXX.............XoooooOO             ",
"              XXOOOOOOOXXX..............oooooOOX            ",
"              XOOOOOOOOXX...............oooooOOX            ",
"              XOOOOOOOOXX...............oooooOOXX           ",
"              XOOOOOOOOXX...............oooooOOXXX          ",
"              XOOOOOOOXX................ooooooOXXXX         ",
"              XOOOOOOOXX...............oooooooOXXXX         ",
"              XOOOOOOOXX...............oooooooOOXXX         ",
"             XXOOOOOOOXXXX..........ooooooooooOOXXX         ",
"             XXOOOOOOOXXXX.........oooooooooooOOOXX         ",
"             XXOOOOOOOXXXXX.......ooooooooooooooOXX         ",
"            XXXXOOOOOOXXXXX......oooooooooooooooOXX         ",
"            XXXXOOOOOOXXXXX......oooooooooooooooOXXX        ",
"            XXXXOOOOOOXXXXX......oooooooooooooooOXXX        ",
"            XXXXOOOOOXXXXXXX....XoooooooooooooOOOXXX        ",
"            XXXXOOOOOXXXXXXX....XoooooooooooOOOOOOXX        ",
"            XXOOOOXOOXXXXXXX....XooooooooooOOOOOXOOX        ",
"            XXOXOOOOOXXXXXXX...XXooooooooooOOOOOOOOX        ",
"            XXXXOOOOOXXXXXXX....XooooooooooOOOOXOOOX        ",
"            XXXXOOOOOXXXXXooX...oooooooooooOOOOOOOOX        ",
"            XXOXOOOOOXXXXXoooXXooooooooooooOOOOOOOOX        ",
"            XXOXOOOOOOXXXXoooXoooooooooooooOOOOOOOXX        ",
"            XXXXOOOOOOXXXXoooooooooooooooooOOXOOOOXX        ",
"            XXXXOOOOOOXXXooooooooooooooooooOOXOOOOXX        ",
"            XXXXOOOOOOOXoooooooooooooooooooOOOOOOOXX        ",
"            XXXXOOOOOOOooooooooooooooooooooOOOOXOOXX        ",
"            XXXXOOOOOOOooooooooooooooooooooOOOOOOOXX        ",
"            XXXXOOOOOOoooooooooooooooooooooOOOOOOOXX        ",
"            XXXOOOOOOOooooooooooooooooooooXOOOOOOXXX        ",
"            XXXOOOOOOoooooooooooooooooooOOOOOOOOOXXX        ",
"            XXOOOOOOOoooooooooOOOOOOOOOOOOOOOOOOXOXX        ",
"            XXOOOOOOOOOOOOOOOOOOOOOOOOOOOXOOOOOXXOXX        ",
"            XXOOOOOOOOOOOOOOOOOOOOOOOOOOOOOOOOOXXOXX        ",
"            XXOOOOOOOOOOOOOOOOOOOOOOOOOOOOOOOOOXXOXX        ",
"            XXOXOOOOOOOOOOOOOOOOOOOOOOOOOOOOOOOXXOXX        "
};
