/* XPM */
static char *c87b1f06f02947d094e26139d83239a1w2BsbToMdsnlXAte[] = {
/* columns rows colors chars-per-pixel */
"60 60 9 1 ",
"  c None",
". c black",
"X c gray10",
"o c gray15",
"O c gray33",
"+ c #7D7C7D",
"@ c gray62",
"# c gray71",
"$ c gray82",
/* pixels */
"                                                            ",
"                                                            ",
"                                                            ",
"                                                            ",
"                                                            ",
"                                                            ",
"                                                            ",
"                                                            ",
"                       ooo                                  ",
"                      ooOoooooo                             ",
"                      oOOOOOOOoooo                          ",
"                    ooOOOOO+OOOOOo                          ",
"                    oOOOOO+oooooOo                          ",
"                   ooOOOO++o@@@ooo                          ",
"                   ooOOOO+Oo@.##oo                          ",
"                   oOOOOOOoo...##oo                         ",
"                   oOOO+Ooo#...##$oo                        ",
"                   oOOO+Oo@##.####$o                        ",
"                   oOOO+Oo@########oo                       ",
"                   oOOO++o@@###@@###oo                      ",
"                  oooooO+oo@@@@@@@###ooo                    ",
"                  oooOOOOOoo@@oooooo###oo                   ",
"                 ooOOoooOOOoooooo  oooooo                   ",
"                 ooOooOOOOOOOOOoo      oo                   ",
"                  oooOOOOOOOOOOoo                           ",
"                    ooooOOOOOOooo                           ",
"                     oooOoooOOooo                           ",
"                      oooooOOOooo                           ",
"                     ooOOOOXOOoooo                          ",
"                    ooOOOOOXXXXOoo                          ",
"                  ..oOOOOOOoXXOOOo                          ",
"                  ..OOOOOOOOXXOOOoo                         ",
"                 ..OOOOOOOOOXOOOOoo                         ",
"                 .OOOOOOOOOOXOOOOOo                         ",
"                ooOOOOOOOOOOXOOOO+o                         ",
"               ooOOOOOOOOOO.X.OOO+o                         ",
"               ooOOOOOOOOOOOXOOOO+o                         ",
"               oOOOOOOOOOOOOXOOOO+o                         ",
"               oOOOOOOoOOOO.X.OOOOo                         ",
"               oOOOOOOoOOOOOXOOOOOoo                        ",
"               oOOOOOooOOOO...OOOOOo                        ",
"               oOOOOOoOOOOOOXOOOOOOo                        ",
"               oOOOOOoOOOOOXXOOOOOOo                        ",
"               oOOOOOoOOOOOoOOOOOOOo                        ",
"              ooOOOoooOOOOoXOOOOOOOo                        ",
"              oOOOOooOOOOOXXOOOOOOOo                        ",
"             ooOOOOooOOOOXXXOOOOOOOo                        ",
"             oOOOOOoOOOOOXXXOOOOOOOo                        ",
"             oOOOOooOOOOXXXXOOOOOOo                         ",
"             oOOOOoOOOOOXXXXOOOOOoo                         ",
"             oooOOoOOOOXXXXXOOOOOo                          ",
"               ooooOOoXXXXXXOOOOoo                          ",
"                 ooooXXoooooooooo                           ",
"                  ooooooooooooo                             ",
"                   oo       ooo                             ",
"                   oo       oo                              ",
"                   oo       oo                              ",
"                   oo       oo                              ",
"                   oooo     oooo                            ",
"                                                            "
};
